<svg height="512" viewBox="0 0 512 512" width="512" xmlns="http://www.w3.org/2000/svg"><g id="Filled_outline" data-name="Filled outline"><path d="m223.96 402.62c-1.4 48.05-42.73 85.38-90.8 85.38h-18.32c-44.57 0-83.36-32.1-89.87-75.08a83.164 83.164 0 0 1 -.93-10.3 87.638 87.638 0 0 1 17.72-55.63c14.66-19.36 17.99-44.35 14.69-68.41a48.035 48.035 0 0 1 -.39-8.93c1.23-25.91 23.92-45.65 49.86-45.65h36.16a51.131 51.131 0 0 1 37.54 16.42 46.387 46.387 0 0 1 12.32 29.23 48.035 48.035 0 0 1 -.39 8.93c-3.3 24.06.03 49.05 14.69 68.41a87.638 87.638 0 0 1 17.72 55.63z" fill="#ffb531"/><path d="m223.96 402.62c-1.4 48.05-42.73 85.38-90.8 85.38h-18.32c-44.57 0-83.36-32.1-89.87-75.08 57.59-28.53 119.27-79.92 154.65-172.5a46.387 46.387 0 0 1 12.32 29.23 48.035 48.035 0 0 1 -.39 8.93c-3.3 24.06.03 49.05 14.69 68.41a87.638 87.638 0 0 1 17.72 55.63z" fill="#ffa912"/><path d="m104 32h40v304h-40z" fill="#8f4d2e"/><circle cx="124" cy="324" fill="#6e3c24" r="36"/><path d="m144 112h-40l-8-24v-64h56v64z" fill="#95573a"/><g fill="#ffb531"><path d="m152 32h24v16h-24z"/><path d="m152 64h24v16h-24z"/><path d="m72 32h24v16h-24z"/><path d="m72 64h24v16h-24z"/></g><path d="m88 408h72v32h-72z" fill="#95573a"/><path d="m88 424h72v16h-72z" fill="#8f4d2e"/><path d="m455.372 313.882-88.847-16.658a8 8 0 0 1 -6.525-7.864v-73.36h-80v73.36a8 8 0 0 1 -6.526 7.864l-88.845 16.658a40 40 0 0 0 -32.629 39.318v102.8h336v-102.8a40 40 0 0 0 -32.628-39.318z" fill="#fec9a3"/><path d="m488 353.29v102.71h-336v-102.71a39.995 39.995 0 0 1 32.74-39.33l70.97-13.1 4.98 20.49a61.028 61.028 0 0 0 118.62 0l4.98-20.49 58.38 10.78 12.59 2.32a39.995 39.995 0 0 1 32.74 39.33z" fill="#4d5e78"/><path d="m488 353.29v102.71h-234.01c65.05-24.72 138.81-68.18 188.68-144.36l12.59 2.32a39.995 39.995 0 0 1 32.74 39.33z" fill="#44546c"/><path d="m360 275.856v-59.856h-80v59.856a71.963 71.963 0 0 0 80 0z" fill="#feb784"/><path d="m400 144h-8v48h8a24 24 0 0 0 0-48z" fill="#feb784"/><path d="m240.4 144h-.4a24 24 0 0 0 0 48h8v-48z" fill="#feb784"/><path d="m392 136v64a72.006 72.006 0 0 1 -72 72c-1.16 0-2.32-.03-3.46-.08a72.009 72.009 0 0 1 -68.54-71.92v-64a72 72 0 0 1 71-71.99c.33-.01.67-.01 1-.01a72.006 72.006 0 0 1 72 72z" fill="#fec9a3"/><path d="m392 136v64a72.006 72.006 0 0 1 -72 72c-1.16 0-2.32-.03-3.46-.08a71.975 71.975 0 0 0 40.16-64.59v-80a72.1 72.1 0 0 0 -37.7-63.32c.33-.01.67-.01 1-.01a72.006 72.006 0 0 1 72 72z" fill="#fec093"/><path d="m248 136h144v16h-144z" fill="#fec093"/><path d="m285.8 116.613a174.36 174.36 0 0 0 68.4 0l5.8-1.159 32 36.546v-16a72 72 0 0 0 -144 0v16l32-36.546z" fill="#7a3b1d"/><path d="m400 416 48-32h40v72h-32l-24 16h-48l-160 16h-48a24 24 0 0 1 -24-24v-48z" fill="#feb784"/><path d="m240 416-48-32h-40v72h32l24 16h48l160 16h48a24 24 0 0 0 24-24v-48z" fill="#fec9a3"/><path d="m392 128h-144s.1-5.78.29-14.18c.07-2.99.16-6.31.25-9.82.28-10.24.66-22.09 1.14-32 .42-8.49.91-15.56 1.48-18.98a34.732 34.732 0 0 1 63.15-13.56 6.845 6.845 0 0 0 11.38 0 34.742 34.742 0 0 1 42.16-12.83 35.137 35.137 0 0 1 4.3 2.14 34.746 34.746 0 0 1 16.69 24.25q1.575 9.45 2.36 18.98a.17.17 0 0 1 .01.07c.28 3.31.48 18.31.61 31.93.12 12.58.18 24 .18 24z" fill="#7a432a"/><path d="m392 128h-144s.1-5.78.29-14.18c41.46-11.41 91.99-35.67 119.56-87.19a35.137 35.137 0 0 1 4.3 2.14 34.746 34.746 0 0 1 16.69 24.25q1.575 9.45 2.36 18.98a.17.17 0 0 1 .01.07c.28 3.31.48 18.31.61 31.93.12 12.58.18 24 .18 24z" fill="#6e3c24"/><path d="m216 104h208a0 0 0 0 1 0 0 32 32 0 0 1 -32 32h-144a32 32 0 0 1 -32-32 0 0 0 0 1 0 0z" fill="#7a432a"/><path d="m391.82 104h-143.28c.28-10.24.66-22.09 1.14-32h141.52a.17.17 0 0 1 .01.07c.28 3.31.48 18.31.61 31.93z" fill="#95573a"/><path d="m367.851 104a157.708 157.708 0 0 1 -43.081 32h67.23a32 32 0 0 0 32-32z" fill="#6e3c24"/><path d="m391.82 104h-39.99v-32h39.37a.17.17 0 0 1 .01.07c.28 3.31.48 18.31.61 31.93z" fill="#8f4d2e"/><path d="m165.894 334.735c.067-.09.134-.179.2-.271-.066.092-.134.181-.2.271z"/><path d="m284 176a12 12 0 1 0 -12-12 12.014 12.014 0 0 0 12 12z"/><path d="m356 176a12 12 0 1 0 -12-12 12.014 12.014 0 0 0 12 12z"/><path d="m296 224h14.891c13.9 0 27.091-3.228 37.14-9.09l-8.062-13.82c-7.529 4.391-18.127 6.91-29.078 6.91h-14.891z"/><path d="m456.845 306.017-88.845-16.657v-25.394a79.8 79.8 0 0 0 32-63.966 32 32 0 0 0 12.283-61.545 40.011 40.011 0 0 0 19.717-34.455 8 8 0 0 0 -8-8h-24v-4.754c0-.168 0-.337 0-.5-.014-6.844-.281-13.214-.826-19.448-.576-6.493-1.409-13.071-2.472-19.531a42.359 42.359 0 0 0 -14.5-25.635 42.746 42.746 0 0 0 -62.202 7.478 42.744 42.744 0 0 0 -62.192-7.489 42.347 42.347 0 0 0 -14.5 25.62c-1.067 6.481-1.9 13.059-2.477 19.562-.544 6.224-.811 12.594-.825 19.438v.5 4.759h-24.006a8 8 0 0 0 -8 8 40.011 40.011 0 0 0 19.717 34.455 32 32 0 0 0 12.283 61.545 79.8 79.8 0 0 0 32 63.964v25.393l-73.288 13.743a110.152 110.152 0 0 1 .731-23.438 54.662 54.662 0 0 0 .468-10.361c-1.247-26.267-21.692-48.014-47.911-52.426v-103.575l7.59-22.769a8.027 8.027 0 0 0 .41-2.531v-8h16v-16h-16v-16h16v-16h-16v-8a8 8 0 0 0 -8-8h-56a8 8 0 0 0 -8 8v8h-16v16h16v16h-16v16h16v8a8.027 8.027 0 0 0 .41 2.53l7.59 22.77v103.575c-26.219 4.412-46.664 26.156-47.909 52.384a54.714 54.714 0 0 0 .463 10.381c2.373 17.424 2.013 42.411-13.191 62.515a95.842 95.842 0 0 0 -19.363 60.725 93.879 93.879 0 0 0 30.492 66.3 100.08 100.08 0 0 0 68.308 26.82h18.4a97.911 97.911 0 0 0 27.539-3.913 32.154 32.154 0 0 0 15.261 3.913h48a7.843 7.843 0 0 0 .8-.04l95.2-9.52 95.2 9.52a7.843 7.843 0 0 0 .8.04h48a32.036 32.036 0 0 0 32-32v-110.8a48.034 48.034 0 0 0 -39.155-47.183zm23.155 101.983h-53.578l24-16h29.578zm0-54.8v22.8h-32a8 8 0 0 0 -4.438 1.344l-45.984 30.656h-155.156l-45.984-30.656a8 8 0 0 0 -4.438-1.344h-32v-22.8a31.916 31.916 0 0 1 5.661-18.162c.081-.1.156-.2.233-.3-.042.055-.091.1-.134.158.14-.2.287-.395.431-.593-.035.054-.063.111-.1.164.055-.079.106-.16.157-.241a31.957 31.957 0 0 1 19.856-12.48l63.553-11.918 3.254 13.413a69.034 69.034 0 0 0 134.178 0l3.253-13.413 63.558 11.915a32.024 32.024 0 0 1 26.1 31.457zm-336 78.8h-48v-16h48zm-8-150.322a43.76 43.76 0 0 0 -24 0v-161.678h24zm-27.562 19.058a28 28 0 0 1 43.562 23.264 28.557 28.557 0 0 1 -.167 2.947 47.931 47.931 0 0 0 -6.524 15.144 27.974 27.974 0 1 1 -36.871-41.355zm291.562-116.736v-32a16 16 0 0 1 0 32zm-140.9-129.682a26.645 26.645 0 0 1 26.34-22.318 26.868 26.868 0 0 1 22.26 11.937 14.826 14.826 0 0 0 24.607-.021 26.854 26.854 0 0 1 22.253-11.916 26.646 26.646 0 0 1 26.346 22.339c.528 3.2.99 6.433 1.392 9.661h-124.598c.405-3.232.868-6.466 1.4-9.682zm-3.1 36.962c0-.05.191-9.413.284-11.28h127.432c.093 1.867.284 16 .284 16h-128zm-8 20.72h166.629a24.042 24.042 0 0 1 -22.629 16h-144a24.042 24.042 0 0 1 -22.629-16zm-24 56a16.019 16.019 0 0 1 16-16v32a16.019 16.019 0 0 1 -16-16zm32 32v-55.7l.257-.3h127.486l.257.3v55.7a63.925 63.925 0 0 1 -98.394 53.911c-.069-.045-.139-.088-.21-.131-.156-.093-.321-.188-.489-.284l-.14-.081c-.106-.079-.214-.154-.323-.227a63.849 63.849 0 0 1 -28.444-53.188zm18.943 105.083a16.009 16.009 0 0 0 13.057-15.723v-16.074a79.79 79.79 0 0 0 64 .032v16.042a16.009 16.009 0 0 0 13.056 15.723l9.539 1.789-3.055 12.595a53.035 53.035 0 0 1 -103.08 0l-3.06-12.595zm-91.012-34.983a38.9 38.9 0 0 1 -.341 7.4 125.216 125.216 0 0 0 -.673 28.567 47.844 47.844 0 0 0 -16.43 6.484 43.543 43.543 0 0 0 -14.487-22.478v-56.893c17.648 4.12 31.082 19.044 31.931 36.92zm-79.931-238.1h40v54.7l-5.766 17.3h-28.468l-5.766-17.3zm10.8 448c-44.374 0-81.52-34.811-82.8-77.573a79.961 79.961 0 0 1 16.144-50.641c18.48-24.438 19.046-53.9 16.263-74.328a38.9 38.9 0 0 1 -.333-7.4c.844-17.839 14.278-32.758 31.926-36.878v56.9a43.981 43.981 0 0 0 48 73.1v36.82h-56a8 8 0 0 0 -8 8v32a8 8 0 0 0 8 8h56v16a32.1 32.1 0 0 0 3.592 14.738 83.027 83.027 0 0 1 -14.392 1.262zm61.2 0a16.083 16.083 0 0 1 -9.485-3.132 15.648 15.648 0 0 1 -6.515-12.868h21.578l21.984 14.656a8 8 0 0 0 4.438 1.344zm304-16a16.019 16.019 0 0 1 -16 16h-47.6l-159.6-15.96a7.843 7.843 0 0 0 -.8-.04h-45.578l-21.984-14.656a8 8 0 0 0 -4.438-1.344h-24v-56h29.578l45.984 30.656a8 8 0 0 0 4.438 1.344h240z"/></g></svg>